<svg width="69" height="29" viewBox="0 0 69 29" fill="none" xmlns="http://www.w3.org/2000/svg">
<path d="M23.5199 22.1817V4.47996H13.44V0H23.5199V4.47996H27.9999L28 16.0815V28H22.3999L16.0937 20.1172H4.43712V28H0V0H6.43992L23.5199 22.1817ZM4.43712 15.6799H12.5439L4.43712 5.54636V15.6799Z" fill="black"/>
<path d="M63.6693 28.2107C63.1491 28.2107 62.6845 28.0994 62.2758 27.8767C61.867 27.6482 61.5418 27.3288 61.3003 26.9186C61.0649 26.5083 60.9473 26.0249 60.9473 25.4682C60.9473 24.9056 61.0649 24.4192 61.3003 24.009C61.5418 23.5988 61.867 23.2823 62.2758 23.0596C62.6845 22.8369 63.1491 22.7256 63.6693 22.7256C64.2019 22.7256 64.6726 22.8369 65.0814 23.0596C65.4902 23.2823 65.8092 23.5988 66.0383 24.009C66.2737 24.4192 66.3913 24.9056 66.3913 25.4682C66.3913 26.0249 66.2737 26.5113 66.0383 26.9274C65.803 27.3376 65.4809 27.654 65.0721 27.8767C64.6634 28.0994 64.1958 28.2107 63.6693 28.2107ZM63.6693 27.068C64.0843 27.068 64.4156 26.9244 64.6634 26.6373C64.9173 26.3443 65.0443 25.9546 65.0443 25.4682C65.0443 24.9759 64.9173 24.5862 64.6634 24.2991C64.4156 24.0119 64.0843 23.8683 63.6693 23.8683C63.2667 23.8683 62.9354 24.0119 62.6753 24.2991C62.4213 24.5862 62.2944 24.9759 62.2944 25.4682C62.2944 25.9546 62.4213 26.3443 62.6753 26.6373C62.9354 26.9244 63.2667 27.068 63.6693 27.068Z" fill="black"/>
<path d="M58.4084 28.1055V22.8313H59.7554V28.1055H58.4084ZM59.0773 22.2512C58.8605 22.2512 58.6747 22.1809 58.5198 22.0402C58.3712 21.8937 58.2969 21.7179 58.2969 21.5128C58.2969 21.3077 58.3712 21.1348 58.5198 20.9942C58.6747 20.8477 58.8605 20.7744 59.0773 20.7744C59.294 20.7744 59.4767 20.8477 59.6254 20.9942C59.7802 21.1348 59.8576 21.3077 59.8576 21.5128C59.8576 21.7179 59.7802 21.8937 59.6254 22.0402C59.4767 22.1809 59.294 22.2512 59.0773 22.2512Z" fill="black"/>
<path d="M53.9305 28.2105C53.4721 28.2105 53.0665 28.0963 52.7134 27.8677C52.3666 27.6333 52.0972 27.311 51.9052 26.9008C51.7132 26.4847 51.6172 26.0071 51.6172 25.468C51.6172 24.923 51.7132 24.4454 51.9052 24.0351C52.0972 23.6191 52.3666 23.2968 52.7134 23.0682C53.0665 22.8397 53.4721 22.7254 53.9305 22.7254C54.6799 22.7254 55.2094 23.0155 55.5191 23.5956H55.5562V20.7212H56.9033V28.1051H55.5934V27.3139H55.5562C55.2342 27.9117 54.6923 28.2105 53.9305 28.2105ZM54.3021 27.0766C54.6984 27.0766 55.005 26.9565 55.2218 26.7162C55.4448 26.4759 55.5562 26.1536 55.5562 25.7492V25.1867C55.5562 24.7823 55.4448 24.46 55.2218 24.2197C55.005 23.9795 54.6984 23.8593 54.3021 23.8593C53.8933 23.8593 53.5681 24.0058 53.3266 24.2988C53.085 24.586 52.9643 24.9757 52.9643 25.468C52.9643 25.9602 53.085 26.3529 53.3266 26.6459C53.5681 26.933 53.8933 27.0766 54.3021 27.0766Z" fill="black"/>
<path d="M47.3886 28.2019C46.986 28.2019 46.6329 28.114 46.3295 27.9382C46.026 27.7566 45.7875 27.5046 45.6141 27.1823C45.4469 26.8599 45.3633 26.4878 45.3633 26.0659V22.8311H46.7104V25.8022C46.7104 26.189 46.8095 26.4937 47.0077 26.7164C47.2058 26.9332 47.4876 27.0416 47.8531 27.0416C48.2309 27.0416 48.5313 26.9273 48.7542 26.6988C48.9772 26.4644 49.0887 26.1538 49.0887 25.767V22.8311H50.4357V28.1052H49.1258V27.2526H49.0887C48.9338 27.5632 48.7109 27.8005 48.4198 27.9646C48.1287 28.1228 47.7849 28.2019 47.3886 28.2019Z" fill="black"/>
<path d="M42.9007 28.1055C42.5477 28.1055 42.2721 28.0176 42.0739 27.8418C41.8757 27.6659 41.7766 27.3993 41.7766 27.0418V23.851H40.8848V22.8313H41.7859V21.249H43.1051V22.8313H44.3036V23.851H43.1237V27.0858H44.4243V28.1055H42.9007Z" fill="black"/>
<path d="M37.4613 28.209C36.8605 28.209 36.3341 28.1124 35.882 27.919C35.4298 27.7256 35.0737 27.4531 34.8136 27.1015C34.5597 26.7499 34.4141 26.3396 34.377 25.8708H35.7891C35.851 26.2752 36.0306 26.5858 36.3279 26.8026C36.6314 27.0136 37.0278 27.119 37.5171 27.119C37.9568 27.119 38.2943 27.0311 38.5297 26.8553C38.7712 26.6795 38.892 26.4393 38.892 26.1345C38.892 25.8943 38.8084 25.695 38.6412 25.5368C38.4801 25.3727 38.2231 25.2526 37.8701 25.1764L36.6252 24.9127C35.9687 24.772 35.4732 24.5376 35.1388 24.2095C34.8105 23.8813 34.6464 23.4652 34.6464 22.9612C34.6464 22.5452 34.7548 22.1818 34.9715 21.8712C35.1945 21.5548 35.5073 21.3116 35.9098 21.1416C36.3124 20.9658 36.7831 20.8779 37.322 20.8779C37.8732 20.8779 38.3532 20.9688 38.7619 21.1504C39.1769 21.3321 39.5083 21.587 39.756 21.9152C40.0037 22.2434 40.1462 22.6331 40.1833 23.0843H38.7712C38.6969 22.7092 38.5266 22.425 38.2603 22.2316C37.994 22.0383 37.6564 21.9416 37.2476 21.9416C36.8636 21.9416 36.5571 22.0236 36.3279 22.1877C36.1049 22.3459 35.9935 22.5627 35.9935 22.8382C35.9935 23.0491 36.0709 23.2337 36.2257 23.392C36.3867 23.5443 36.6345 23.6557 36.9689 23.726L38.2696 24.0073C38.9261 24.1421 39.4185 24.3765 39.7467 24.7105C40.075 25.0445 40.2391 25.4841 40.2391 26.0291C40.2391 26.6971 39.9944 27.2275 39.5052 27.6201C39.0221 28.0127 38.3408 28.209 37.4613 28.209Z" fill="black"/>
<path d="M63.2012 17.823V12.5488H64.5111V13.3488H64.5483C64.7093 13.0616 64.9323 12.8419 65.2172 12.6895C65.5082 12.5313 65.8427 12.4521 66.2205 12.4521C66.6293 12.4521 66.9854 12.5459 67.2889 12.7334C67.5986 12.921 67.8401 13.1788 68.0135 13.507C68.1869 13.8352 68.2736 14.2131 68.2736 14.6409V17.823H66.9266V14.8871C66.9266 14.4886 66.8213 14.178 66.6107 13.9553C66.4001 13.7267 66.109 13.6125 65.7374 13.6125C65.372 13.6125 65.0809 13.7267 64.8641 13.9553C64.6535 14.178 64.5483 14.4886 64.5483 14.8871V17.823H63.2012Z" fill="black"/>
<path d="M59.0593 20.0387C58.3347 20.0387 57.7308 19.8746 57.2478 19.5464C56.7647 19.2241 56.4829 18.7934 56.4023 18.2542H57.8237C57.8857 18.4828 58.0219 18.6615 58.2325 18.7905C58.4493 18.9194 58.7156 18.9838 59.0315 18.9838C59.4526 18.9838 59.7871 18.8666 60.0348 18.6322C60.2826 18.3978 60.4064 18.0814 60.4064 17.6829V16.9269H60.3693C60.2144 17.2199 60.0008 17.4426 59.7282 17.595C59.4619 17.7473 59.1492 17.8235 58.7899 17.8235C58.3254 17.8235 57.9136 17.7092 57.5543 17.4807C57.2013 17.2521 56.9257 16.9357 56.7275 16.5313C56.5293 16.127 56.4302 15.6611 56.4302 15.1337C56.4302 14.6004 56.5293 14.1345 56.7275 13.736C56.9257 13.3317 57.2013 13.0152 57.5543 12.7867C57.9136 12.5581 58.3254 12.4438 58.7899 12.4438C59.1553 12.4438 59.4743 12.52 59.7468 12.6724C60.0193 12.8248 60.2268 13.0445 60.3693 13.3317H60.4064V12.5493H61.7164V17.7005C61.7164 18.4271 61.481 18.9985 61.0103 19.4146C60.5396 19.8306 59.8893 20.0387 59.0593 20.0387ZM59.1337 16.6808C59.5177 16.6808 59.8181 16.5636 60.0348 16.3292C60.2578 16.0889 60.3693 15.7666 60.3693 15.3622V14.8876C60.3693 14.4949 60.2578 14.1814 60.0348 13.947C59.8119 13.7067 59.5115 13.5866 59.1337 13.5866C58.7187 13.5866 58.3874 13.7272 58.1396 14.0085C57.8981 14.284 57.7773 14.659 57.7773 15.1337C57.7773 15.6084 57.8981 15.9863 58.1396 16.2676C58.3874 16.5431 58.7187 16.6808 59.1337 16.6808Z" fill="black"/>
<path d="M53.8322 17.8243V12.5501H55.1793V17.8243H53.8322ZM54.5011 11.9699C54.2843 11.9699 54.0985 11.8996 53.9437 11.759C53.795 11.6125 53.7207 11.4367 53.7207 11.2315C53.7207 11.0264 53.795 10.8536 53.9437 10.7129C54.0985 10.5664 54.2843 10.4932 54.5011 10.4932C54.7179 10.4932 54.9006 10.5664 55.0492 10.7129C55.204 10.8536 55.2815 11.0264 55.2815 11.2315C55.2815 11.4367 55.204 11.6125 55.0492 11.759C54.9006 11.8996 54.7179 11.9699 54.5011 11.9699Z" fill="black"/>
<path d="M50.5112 17.929C49.8113 17.929 49.2415 17.7649 48.8018 17.4367C48.362 17.1086 48.1267 16.6661 48.0957 16.1094H49.3963C49.4397 16.3731 49.5605 16.5753 49.7587 16.7159C49.963 16.8507 50.2325 16.9181 50.5669 16.9181C50.8456 16.9181 51.0593 16.8683 51.2079 16.7687C51.3628 16.6632 51.4402 16.5138 51.4402 16.3204C51.4402 16.0274 51.2296 15.8369 50.8085 15.749L49.7958 15.5468C48.7739 15.3359 48.2629 14.8524 48.2629 14.0964C48.2629 13.5983 48.4611 13.1998 48.8575 12.9009C49.2539 12.5962 49.771 12.4438 50.409 12.4438C51.0469 12.4438 51.5702 12.5991 51.979 12.9097C52.3878 13.2203 52.6108 13.6423 52.6479 14.1755H51.3473C51.2977 13.9294 51.1863 13.7419 51.0128 13.613C50.8394 13.484 50.6134 13.4196 50.3346 13.4196C50.0869 13.4196 49.8887 13.4694 49.7401 13.569C49.5914 13.6628 49.5171 13.8005 49.5171 13.9822C49.5171 14.1111 49.5667 14.2195 49.6658 14.3074C49.7648 14.3894 49.9135 14.451 50.1117 14.492L51.1522 14.703C51.6662 14.8084 52.0533 14.9842 52.3135 15.2304C52.5736 15.4706 52.7037 15.7988 52.7037 16.2149C52.7037 16.7423 52.5055 17.1613 52.1091 17.4719C51.7189 17.7766 51.1863 17.929 50.5112 17.929Z" fill="black"/>
<path d="M44.7391 17.929C44.2188 17.929 43.7543 17.8177 43.3456 17.595C42.943 17.3664 42.624 17.047 42.3887 16.6368C42.1595 16.2208 42.0449 15.7314 42.0449 15.1688C42.0449 14.6121 42.1564 14.1316 42.3794 13.7272C42.6085 13.317 42.9213 13.0006 43.3177 12.7779C43.7141 12.5552 44.1693 12.4438 44.6833 12.4438C45.1664 12.4438 45.5969 12.5464 45.9747 12.7515C46.3525 12.9508 46.6529 13.2438 46.8758 13.6305C47.0988 14.0173 47.2103 14.4832 47.2103 15.0282V15.4941H43.3641C43.4137 15.9277 43.5592 16.2676 43.8008 16.5138C44.0485 16.754 44.3582 16.8742 44.7298 16.8742C45.0147 16.8742 45.2501 16.8097 45.4359 16.6808C45.6279 16.5519 45.7579 16.376 45.826 16.1534H47.201C47.1267 16.5226 46.9718 16.8419 46.7365 17.1115C46.5073 17.3752 46.2193 17.5774 45.8725 17.718C45.5319 17.8587 45.1541 17.929 44.7391 17.929ZM43.4013 14.6063H45.8911C45.8477 14.2429 45.7146 13.9675 45.4916 13.78C45.2748 13.5866 45.0054 13.4899 44.6833 13.4899C44.3613 13.4899 44.0857 13.5866 43.8565 13.78C43.6336 13.9734 43.4818 14.2488 43.4013 14.6063Z" fill="black"/>
<path d="M34.8301 17.8243V10.7041H37.3849C38.1405 10.7041 38.7939 10.8477 39.3451 11.1348C39.9025 11.422 40.333 11.8322 40.6365 12.3655C40.9461 12.8987 41.101 13.5317 41.101 14.2642C41.101 14.9908 40.9461 15.6208 40.6365 16.1541C40.333 16.6874 39.9025 17.1005 39.3451 17.3935C38.7877 17.6807 38.1343 17.8243 37.3849 17.8243H34.8301ZM36.2143 16.6815H37.3849C37.8866 16.6815 38.3108 16.5819 38.6577 16.3826C39.0045 16.1775 39.2677 15.8933 39.4473 15.53C39.6269 15.1666 39.7167 14.7447 39.7167 14.2642C39.7167 13.5375 39.5155 12.9544 39.1129 12.5149C38.7165 12.0695 38.1405 11.8468 37.3849 11.8468H36.2143V16.6815Z" fill="black"/>
<path d="M50.2887 7.63896C49.7251 7.63896 49.2699 7.48953 48.9231 7.19066C48.5824 6.89179 48.4121 6.49915 48.4121 6.01275C48.4121 5.50292 48.5917 5.10735 48.9509 4.82606C49.3164 4.54477 49.8273 4.40413 50.4838 4.40413H51.9145V4.17558C51.9145 3.87085 51.8216 3.63351 51.6358 3.46356C51.4562 3.29362 51.2054 3.20864 50.8833 3.20864C50.6108 3.20864 50.3847 3.26725 50.2051 3.38445C50.0255 3.50165 49.9078 3.6716 49.8521 3.89429H48.4864C48.5917 3.34343 48.8549 2.91856 49.2761 2.61969C49.6973 2.31496 50.233 2.1626 50.8833 2.1626C51.6141 2.1626 52.1808 2.34133 52.5834 2.69881C52.9922 3.05628 53.1966 3.56026 53.1966 4.21074V7.54227H51.9424V6.75114H51.9052C51.7566 7.03243 51.5398 7.25219 51.2549 7.41041C50.9762 7.56278 50.6542 7.63896 50.2887 7.63896ZM50.5767 6.62807C50.8307 6.62807 51.0567 6.57533 51.2549 6.46985C51.4593 6.36437 51.6203 6.22079 51.738 6.03912C51.8557 5.8516 51.9145 5.64063 51.9145 5.40622V5.29195H50.5489C50.2764 5.29195 50.0627 5.35055 49.9078 5.46775C49.7592 5.58496 49.6849 5.74611 49.6849 5.95122C49.6849 6.16219 49.7654 6.3292 49.9264 6.45227C50.0874 6.56947 50.3042 6.62807 50.5767 6.62807Z" fill="black"/>
<path d="M46.2738 7.54248C45.9208 7.54248 45.6452 7.45457 45.447 7.27877C45.2488 7.10296 45.1497 6.83632 45.1497 6.47885V3.28797H44.2578V2.26829H45.159V0.686035H46.4782V2.26829H47.6766V3.28797H46.4968V6.5228H47.7974V7.54248H46.2738Z" fill="black"/>
<path d="M41.9904 7.54206V2.26787H43.3375V7.54206H41.9904ZM42.6593 1.68771C42.4425 1.68771 42.2567 1.61739 42.1019 1.47674C41.9532 1.33024 41.8789 1.15443 41.8789 0.949323C41.8789 0.744216 41.9532 0.57134 42.1019 0.430695C42.2567 0.28419 42.4425 0.210938 42.6593 0.210938C42.8761 0.210938 43.0588 0.28419 43.2074 0.430695C43.3622 0.57134 43.4397 0.744216 43.4397 0.949323C43.4397 1.15443 43.3622 1.33024 43.2074 1.47674C43.0588 1.61739 42.8761 1.68771 42.6593 1.68771Z" fill="black"/>
<path d="M33.9668 7.543L36.8653 0.422852H38.3053L41.1667 7.543H39.7267L39.03 5.67946H36.1036L35.3603 7.543H33.9668ZM36.5216 4.5543H38.6305L37.6179 1.87325H37.5807L36.5216 4.5543Z" fill="black"/>
</svg>
